  <svg
         class="mask_p"
        width="1611"
        height="743"
        viewBox="0 0 1611 743"
        fill="none"
        xmlns="http://www.w3.org/2000/svg"
      >
        <g clip-path="url(#clip0_212_2)">
          <path
            d="M1598.73 308.22C1578.16 281.97 1542.18 275.63 1515.35 278.46C1485.21 281.64 1456.96 294.65 1429.65 307.23L1428.49 307.76C1302.28 365.89 1172.34 420.15 1042.26 469.05C1034.49 471.97 1025.67 475.26 1016.74 475.19C1006.28 475.08 996.44 470.43 986.92 465.93L986.38 465.68C915.9 432.37 840.9 406.92 768.37 382.3C700.48 359.26 615.98 330.58 536.42 348.7C529.97 350.17 523.36 351.97 516.97 353.7C493.9 359.98 470.05 366.46 447.51 359.41C426.09 352.7 410.41 335.16 395.25 318.19C393.33 316.04 391.42 313.9 389.5 311.79C337.52 254.55 271.01 212.37 197.09 189.75L510.48 54.97C552.78 36.78 590.94 22.38 629.56 30.6C664.56 38.04 692.1 63.1 718.74 87.34C727.32 95.15 736.2 103.23 745.17 110.57C764.9 126.72 788.69 138.6 810.44 143.19C836.36 148.66 858.76 143.96 875.21 129.62C879.94 125.49 882.36 121.69 882.83 117.66C883.72 109.94 877.58 103.09 864.58 97.3L746.89 44.81C706.99 27.01 665.73 8.61 621.54 2.44C571.36 -4.57 519.8 4.89 475.41 14.3C344.65 42.03 216.34 82.96 97.1699 123.06C88.8999 125.84 80.2399 128.26 71.0599 130.83C65.3699 132.42 59.4899 134.07 53.7299 135.8C43.3299 138.93 29.8699 143.33 18.0099 149.66C-1.31007 159.97 -0.530075 176.66 0.369925 195.98L0.509925 199.07C2.66992 248.33 14.3799 297.01 35.2999 343.76C54.8799 387.49 81.4599 427.05 114.31 461.34C148.11 496.62 186.77 524.39 229.2 543.89C264.91 560.3 296.34 566.2 322.62 561.42C323.61 561.24 324.6 561.02 325.58 560.81V560.87C354.98 556 381.07 544.17 399.06 527.55C419.63 508.54 429.62 483.5 427.94 455.12C427.72 451.35 426.84 447.6 425.99 443.97C425.17 440.44 424.32 436.8 424.1 433.2C451.77 437.66 468.11 463.27 473.89 474.16C480.96 487.49 485.65 502.16 490.18 516.35C492.46 523.48 494.81 530.85 497.44 537.98C514.46 584.06 546.1 626.52 588.94 660.77C628.44 692.34 676.74 716.68 728.64 731.15C756.95 739.05 781.63 742.93 804.19 742.93C815.1 742.93 825.52 742.02 835.61 740.22C908.98 727.14 962.35 665.33 994.2 615.79C995.01 614.53 995.82 613.26 996.63 611.99C1003.84 600.69 1011.29 589 1021.6 580.33C1035.1 568.97 1052.52 563.49 1069.37 558.19L1071.65 557.47C1146.01 534.02 1218.48 502.75 1287.05 464.52C1355.62 426.3 1420.33 381.1 1479.38 330.18L1479.94 329.7C1489.81 321.19 1500.01 312.39 1512.51 309.06C1524.84 305.78 1540.77 309.69 1546.05 321.93C1548.84 328.4 1548.1 335.39 1547.31 342.78C1546.67 348.75 1546.01 354.92 1547.41 360.77C1549.6 369.94 1556.97 376.71 1567.62 379.33C1580.23 382.43 1593.8 378.67 1601.38 369.97C1616.46 352.67 1611.88 324.97 1598.73 308.2V308.22ZM426.94 455.18C428.6 483.25 418.72 508.02 398.38 526.82C382.96 541.07 361.51 551.76 337.13 557.53C337.95 557.24 338.78 556.95 339.59 556.64C387.24 537.95 407.84 484.14 423.22 434.63C423.55 437.85 424.29 441.07 425.02 444.2C425.86 447.79 426.72 451.49 426.94 455.18ZM1600.63 369.33C1593.29 377.75 1580.12 381.39 1567.86 378.37C1557.59 375.84 1550.49 369.35 1548.39 360.55C1547.03 354.87 1547.68 348.79 1548.31 342.9C1549.08 335.7 1549.87 328.26 1546.98 321.54C1541.49 308.81 1525.02 304.71 1512.27 308.1C1499.55 311.48 1489.26 320.36 1479.3 328.95L1478.74 329.43C1419.74 380.3 1355.08 425.46 1286.57 463.65C1218.06 501.84 1145.65 533.09 1071.35 556.52L1069.08 557.24C1052.14 562.57 1034.62 568.08 1020.97 579.57C1010.54 588.34 1003.05 600.09 995.8 611.46C994.99 612.73 994.18 614 993.37 615.26C961.62 664.64 908.45 726.23 835.44 739.25C804.61 744.75 770.76 741.87 728.91 730.2C677.15 715.76 628.96 691.49 589.57 660C546.87 625.87 515.33 583.55 498.38 537.64C495.76 530.53 493.4 523.17 491.13 516.05C486.59 501.82 481.89 487.11 474.77 473.7C468.86 462.56 452.03 436.21 423.39 432.08L422.97 432.02L422.84 432.43C407.47 482.23 387.06 536.94 339.21 555.71C333.87 557.8 328.23 559.4 322.43 560.45C296.37 565.19 265.13 559.31 229.61 542.99C187.29 523.54 148.74 495.84 115.02 460.66C82.2499 426.46 55.7299 386.99 36.1999 343.36C15.3399 296.73 3.65992 248.17 1.50992 199.03L1.36992 195.93C0.449925 176.16 -0.280075 160.55 18.4899 150.54C30.2799 144.25 43.6699 139.87 54.0299 136.75C59.7799 135.02 65.6499 133.38 71.3399 131.79C80.5299 129.22 89.1999 126.8 97.4999 124.01C216.63 83.92 344.91 43 475.62 15.27C519.92 5.87 571.38 -3.57 621.4 3.42C665.45 9.58 706.65 27.95 746.48 45.71L864.17 98.2C876.72 103.8 882.66 110.3 881.83 117.54C881.4 121.31 879.08 124.91 874.55 128.86C839.48 159.44 783.23 140.41 745.8 109.79C736.84 102.46 727.98 94.4 719.41 86.6C692.67 62.27 665.03 37.12 629.76 29.62C590.85 21.35 552.53 35.79 510.07 54.05L194.18 189.91L195.49 190.31C269.76 212.78 336.59 255.02 388.76 312.46C390.67 314.57 392.59 316.71 394.51 318.86C409.76 335.93 425.53 353.58 447.22 360.37C470.03 367.51 494.04 360.98 517.24 354.67C523.62 352.93 530.22 351.14 536.65 349.68C615.94 331.62 700.28 360.25 768.06 383.25C840.56 407.86 915.54 433.3 985.97 466.59L986.51 466.84C996.13 471.39 1006.07 476.09 1016.75 476.2C1025.9 476.26 1034.78 472.95 1042.63 470C1172.72 421.1 1302.69 366.82 1428.92 308.68L1430.08 308.15C1457.32 295.6 1485.5 282.62 1515.47 279.46C1542.03 276.66 1577.64 282.91 1597.96 308.84C1610.85 325.29 1615.38 352.42 1600.64 369.34L1600.63 369.33Z"
            fill="#010101"
          />
          <path
            d="M293.15 298.01C261.16 275.75 224.5 255.64 174.29 232.78L173.83 232.57C152.7 222.95 117.34 206.84 90.5998 210.67C77.2398 212.59 67.5198 219.36 61.6998 230.8C42.4498 268.66 52.3198 314.46 59.9098 338.38C72.1498 376.92 93.5698 413.49 121.85 444.13C150.14 474.76 184.88 499.02 222.33 514.29C246.32 524.07 267.94 528.95 288.42 529.21C288.92 529.21 289.44 529.21 289.98 529.21C296.93 529.21 306.46 528.56 314.72 524.36C322.36 520.47 329.18 513.48 335.57 502.99C346.75 484.62 353.81 462.02 357.17 433.91C361.05 401.43 357.95 375.47 347.7 354.55C335.51 329.66 313.28 311.99 293.15 297.99V298.01ZM356.17 433.81C352.83 461.77 345.81 484.24 334.71 502.49C328.43 512.82 321.74 519.69 314.26 523.49C305.56 527.91 295.34 528.31 288.43 528.22C268.08 527.96 246.58 523.1 222.71 513.38C185.39 498.17 150.77 474 122.58 443.47C94.3898 412.94 73.0498 376.51 60.8598 338.1C53.3098 314.32 43.4998 268.82 62.5898 231.27C68.2498 220.13 77.7298 213.54 90.7498 211.67C93.4598 211.28 96.2698 211.1 99.1398 211.1C124.26 211.1 154.55 224.89 173.43 233.48L173.89 233.69C224.04 256.52 260.65 276.61 292.59 298.83C312.61 312.76 334.71 330.33 346.81 355.01C356.97 375.75 360.04 401.53 356.18 433.81H356.17Z"
            fill="#010101"
          />
          <path
            d="M836.1 479.73C799.14 456.08 756.13 435.86 708.24 419.66C666.52 405.54 628.27 396.71 591.3 392.69C578.26 391.27 566.59 391.94 556.61 394.69C510.85 407.31 507.79 460 520.19 505.11C537.27 567.24 562.48 611.11 597.28 639.22C636.02 670.52 686.28 682.09 734.9 693.29C740.04 694.47 745.16 695.65 750.25 696.85C768.78 701.21 789.83 706.17 810.15 706.17C826.41 706.17 842.2 703 855.86 693.81C887.38 672.6 893.1 628.74 894.65 597.58C895.88 572.91 895.45 547.12 884.03 525.62C873.25 505.32 853.75 491.04 836.1 479.74V479.73ZM521.16 504.84C515.36 483.73 513.75 466 515.17 451.33C516.72 465.35 530.78 470.02 543.36 474.19C546.78 475.32 550.02 476.4 552.98 477.63C575.3 486.89 585.88 506.56 584.45 536.08L584.3 539.07C582.19 581.93 580.2 622.53 616.21 651.32C609.88 647.43 603.76 643.16 597.91 638.44C563.28 610.46 538.17 566.76 521.15 504.84H521.16ZM893.65 597.53C892.1 628.47 886.44 672.02 855.3 692.98C824.94 713.41 783.66 703.69 750.48 695.88C745.39 694.68 740.26 693.5 735.12 692.32C696.53 683.43 656.9 674.29 622.89 655.24L622.99 655.1C581 626.45 583.09 584.03 585.3 539.13L585.45 536.14C586.91 506.15 576.12 486.16 553.37 476.72C550.37 475.48 547.12 474.4 543.68 473.26C529.17 468.45 514.16 463.48 516.21 445.58L515.92 445.55C520.57 416.65 537.75 400.95 556.88 395.68C566.73 392.96 578.27 392.3 591.19 393.71C628.08 397.73 666.26 406.54 707.92 420.64C755.73 436.82 798.68 457 835.56 480.61C853.1 491.84 872.47 506.02 883.15 526.12C894.46 547.41 894.88 573.04 893.66 597.57L893.65 597.53Z"
            fill="#010101"
          />
          <path
            d="M1105.43 493.7C1118.66 489 1113.89 479.7 1113.89 479.7L1090.73 488.59L1099.29 510.89L1130.56 498.89C1127.07 489.8 1117.46 492.7 1117.46 492.7L1106.64 496.85L1105.43 493.7Z"
            stroke="#212121"
            stroke-miterlimit="10"
          />
        </g>
        <defs>
          <clipPath id="clip0_212_2">
            <rect width="1610.81" height="742.94" fill="white" />
          </clipPath>
        </defs>
      </svg>