<svg width="977" height="326" viewBox="0 0 977 326" fill="none" xmlns="http://www.w3.org/2000/svg">
<path d="M66.5287 28.2112C124.533 1.23485 193.073 -2.12647 257.69 3.76169C335.845 10.8899 413.057 29.9113 491.539 29.342C568.595 28.7805 644.216 9.34569 720.951 2.3189C797.687 -4.7079 880.326 2.47487 942.136 48.4961C954.528 57.7222 966.186 68.8278 972.09 83.0997C977.611 96.4358 977.642 111.394 976.192 125.752C968.846 198.25 923.334 265.789 858.897 299.815C794.459 333.842 713.021 333.335 649.012 298.513C585.003 263.691 540.334 195.591 533.884 123.007C532.995 113.016 532.644 102.488 527.443 93.909C520.627 82.6708 506.676 77.3831 493.536 77.4533C477.869 77.5391 456.143 80.7679 450.333 96.9895C445.014 111.831 450.13 128.739 448.687 144.04C446.106 171.414 431.453 196.207 414.577 217.911C382.144 259.62 339.409 294.122 289.788 312.285C240.167 330.449 183.527 331.377 135.115 310.211C64.7351 279.452 14.5136 207.726 2.76152 131.827C0.242647 115.559 -1.94089 97.4653 2.79271 80.3779C6.66849 66.3633 19.7229 56.8097 31.5843 48.4025C42.6813 40.5412 54.3711 33.8576 66.5287 28.2034V28.2112Z" fill="#F1F1F1"/>
</svg>
