<svg width="1920" height="980" viewBox="0 0 1920 980" fill="none" xmlns="http://www.w3.org/2000/svg">
<path fill-rule="evenodd" clip-rule="evenodd" d="M1920 980H0V0H1920V980ZM1414.14 375.496C1352.33 329.475 1269.69 322.293 1192.95 329.319C1116.22 336.346 1040.59 355.78 963.539 356.342C885.056 356.911 807.845 337.89 729.689 330.762C665.072 324.874 596.532 328.235 538.528 355.211V355.203C526.371 360.857 514.681 367.541 503.584 375.402C491.723 383.81 478.669 393.363 474.793 407.378C470.059 424.465 472.243 442.559 474.762 458.827C486.514 534.726 536.735 606.452 607.115 637.211C655.527 658.377 712.167 657.449 761.788 639.285C811.409 621.122 854.144 586.619 886.577 544.911C903.453 523.207 918.106 498.414 920.688 471.04C922.13 455.739 917.015 438.83 922.333 423.989C928.143 407.768 949.869 404.539 965.536 404.453C978.676 404.383 992.628 409.671 999.443 420.909C1004.64 429.488 1005 440.017 1005.88 450.007C1012.33 522.591 1057 590.691 1121.01 625.513C1185.02 660.335 1266.46 660.842 1330.9 626.815C1395.33 592.789 1440.85 525.25 1448.19 452.752C1449.64 438.394 1449.61 423.436 1444.09 410.1C1438.19 395.828 1426.53 384.722 1414.14 375.496Z" fill="#254BB6"/>
</svg>